<?xml version="1.0" encoding="utf-8"?>
<!-- Generator: Adobe Illustrator 22.1.0, SVG Export Plug-In . SVG Version: 6.00 Build 0)  -->
<svg version="1.1" id="Ebene_1" xmlns="http://www.w3.org/2000/svg" xmlns:xlink="http://www.w3.org/1999/xlink" x="0px" y="0px"
	 viewBox="0 0 320.009 184.467" style="enable-background:new 0 0 320.009 184.467;" xml:space="preserve">
<style type="text/css">
	.st0{fill:#008AC9;}
	.st1{fill:#FFFFFF;}
</style>
<rect class="st0" width="320.009" height="184.467"/>
<g>
	<rect x="44.942" y="33.169" class="st1" width="6.678" height="32.856"/>
	<polygon class="st1" points="146.075,40.164 146.075,33.176 122.427,33.176 122.427,40.164 130.915,40.164 130.915,79.581 
		137.59,79.581 137.59,40.164 	"/>
	<rect x="152.88" y="33.169" class="st1" width="6.677" height="32.856"/>
	<path class="st1" d="M224.281,67.83V33.169h-6.609v34.875c0,2.434-0.626,8.093-6.399,8.093c-5.875,0-6.335-6.245-6.335-8.163
		V33.169h-6.681v35.08c0,8.882,5.353,15.085,13.016,15.085c0.469,0,0.919-0.029,1.363-0.061l-10.524,45.693h7.081l2.634-12.985
		h9.818l2.691,12.985h7.284l-11.291-49.311C222.857,76.971,224.281,72.917,224.281,67.83 M213.185,109.214l1.686-8.143
		c0.524-2.616,1.25-6.689,1.697-9.178h0.331c0.442,2.5,1.181,6.61,1.694,9.178l1.681,8.143H213.185z"/>
	<polygon class="st1" points="253.105,33.169 229.454,33.169 229.454,40.148 237.942,40.148 237.942,82.92 244.617,82.92 
		244.617,40.148 253.105,40.148 	"/>
	<path class="st1" d="M92.064,106.255c4.682-2.09,7.058-6.437,7.058-12.931c0-8.326-4.539-13.391-12.174-13.719V33.169h-6.542
		v21.746c0,1.839,0.038,5.76,0.09,8.238l-0.328,0.079l-0.538-1.384c-0.709-1.824-1.548-3.965-2.1-5.227l-9.856-23.452h-6.739v46.412
		H44.94v49.385h6.68v-22.39h9.931v-6.844H51.62V86.495h15.852V57.856c0-1.834-0.036-5.756-0.091-8.24l0.331-0.077l0.538,1.397
		c0.715,1.822,1.551,3.961,2.097,5.221l9.796,23.424h-7.036v49.385h6.672v-21.415l5.174,0.127l6.812,21.288h7.536l-7.386-22.658
		L92.064,106.255 M85.659,100.712h-5.88V86.495h5.88c4.249,0,6.598,2.495,6.598,7.037C92.257,98.296,90.03,100.712,85.659,100.712"
		/>
	<path class="st1" d="M114.964,79.581c2.466-2.511,4.059-6.022,4.059-9.912c0-7.93-5.591-12.102-11.228-15.981
		c-5.235-3.573-6.695-5.012-6.695-8.566c0-3.044,2.307-5.607,5.251-5.607c2.434,0,4.498,1.479,6.002,3.856l5.003-4.276
		c-2.28-4.221-6.269-6.697-11.002-6.697c-7.113,0-12.182,6.222-12.182,12.986c0,7.875,4.313,10.891,9.417,14.472
		c6.074,4.282,8.339,6.206,8.339,10.044c0,3.185-2.481,6.307-5.918,6.307c-2.517,0-4.258-1.568-7.159-5.35l-5.239,4.596
		c3.026,5.286,7.215,8.007,12.483,8.007c2.897,0,5.643-1.111,7.864-2.958l-11.156,48.464h7.075l2.63-12.985h9.814l2.699,12.985h7.28
		l-11.306-49.385H114.964 M113.873,109.214l1.681-8.143c0.527-2.616,1.255-6.689,1.691-9.178h0.34c0.444,2.5,1.173,6.61,1.699,9.178
		l1.678,8.143H113.873z"/>
	<path class="st1" d="M157.066,101.321c0,1.849,0.035,5.766,0.085,8.248l-0.329,0.078l-0.537-1.387
		c-0.712-1.815-1.548-3.964-2.097-5.23l-9.857-23.45h-6.741v49.386h6.543v-24.688c0-1.842-0.042-5.759-0.092-8.244l0.329-0.077
		l0.538,1.383c0.715,1.823,1.545,3.971,2.1,5.233l11.04,26.393h5.557V79.58h-6.539V101.321"/>
	<rect x="237.945" y="95.751" class="st1" width="6.675" height="33.215"/>
	<path class="st1" d="M265.632,100.101c-5.221-3.58-6.688-5.004-6.688-8.572c0-3.032,2.306-5.599,5.251-5.599
		c2.433,0,4.5,1.474,5.998,3.851l5.006-4.274c-2.279-4.219-6.264-6.696-10.996-6.696c-7.116,0-12.188,6.228-12.188,12.995
		c0,7.866,4.313,10.884,9.42,14.459c6.074,4.291,7.743,6.076,7.743,9.924c0,3.179-2.472,6.297-5.919,6.297
		c-2.514,0-4.258-1.565-7.155-5.346l-5.245,4.597c3.029,5.28,7.224,7.999,12.491,7.999c6.86,0,12.922-6.176,12.922-13.783
		C276.272,108.024,271.281,103.977,265.632,100.101"/>
	<path class="st1" d="M190.782,115.127c-1.3,5.477-2.793,7.424-5.682,7.424c-6.73,0-7.251-14.037-7.251-18.342
		c0-6.793,0.877-18.208,6.791-18.208c3.554,0,4.721,2.461,5.549,6.712l0.022,0.122l6.733-1.818l-0.019-0.097
		c-1.295-8.149-5.249-12.109-12.089-12.109c-0.867,0-1.695,0.095-2.487,0.272V40.147h8.485v-6.978h-23.647v6.978h8.485v43.628
		c-3.052,4.308-4.7,11.309-4.7,20.571c0,13.53,3.392,22.19,9.576,24.667l-2.086,10.262h6.564l1.794-9.678
		c5.461-0.827,8.706-4.797,10.168-12.371l0.022-0.119l-6.195-2.103L190.782,115.127"/>
	<path class="st1" d="M90.053,159.332v-6.067c0-1.553,0.994-3.209,3.023-3.209c1.595,0,2.402,1.118,2.402,2.94v6.336h1.574v-6.895
		c0-2.443-1.325-3.665-3.313-3.665c-1.947,0-3.313,1.242-3.686,3.417v-3.21h-1.574v10.353H90.053z M85.165,148.979h-1.574v10.353
		h1.574V148.979z M85.31,144.341h-1.864v1.864h1.864V144.341z M80.278,143.803h-1.574v15.53h1.574V143.803z M72.366,159.332v-5.715
		c0.414-3.064,1.74-3.685,4.1-3.313v-1.47c-1.449-0.186-2.567-0.103-3.209,0.746l-0.891,2.464v-3.065h-1.573v10.353H72.366z
		 M63.294,149.911c2.175,0,3.003,1.656,3.003,3.334h-6.129C60.416,151.008,61.555,149.911,63.294,149.911 M68.078,155.274h-1.657
		c-0.166,1.698-0.973,3.126-3.106,3.126c-2.091,0-3.209-1.553-3.209-4.12v-0.269h7.972c-0.042-3.251-1.719-5.239-4.804-5.239
		c-2.961,0-4.949,2.195-4.949,5.466c0,3.024,1.739,5.301,4.969,5.301C66.463,159.539,67.974,157.199,68.078,155.274 M45.629,159.332
		h4.907c3.645,0,5.653-1.47,5.653-4.369c0-2.029-1.014-3.416-3.126-3.955c1.615-0.6,2.526-1.843,2.526-3.561
		c0-2.485-1.802-3.644-5.115-3.644h-4.845V159.332z M50.888,151.733c2.299,0,3.562,1.097,3.562,3.085
		c0,2.174-1.284,3.044-3.748,3.044h-3.396v-6.129H50.888z M50.64,145.252c2.133,0,3.189,0.849,3.189,2.568
		c0,1.615-1.139,2.671-2.878,2.671h-3.645v-5.239H50.64z"/>
</g>
</svg>
